<?xml version="1.0" encoding="utf-8"?>
<svg xmlns="http://www.w3.org/2000/svg" width="302.533" height="69.574">
    <g id="Nommâarkkâdâh">
        <g>
            <path fill="#CAB626" d="M0 69.574h50.636V0H0v69.574zm14.778-50.592a6.5 6.5 0 1 1 0-13 6.5 6.5 0 0 1 0 13m29.077 44.926h-5.04c-1.873-10.801-4.608-21.457-6.193-32.906h-.144c.288 4.32.72 13.465.72 18.002v14.904H27.87V12.496h5.04c1.872 10.801 4.609 21.457 6.193 32.906h.144c-.288-4.32-.72-13.465-.72-18V12.496h5.328v51.412z"/>
            <path fill="#6C98C2" d="M56.354 33.641c0-3.953 3.241-7.193 7.194-7.193s7.193 3.24 7.193 7.193V57.1c0 3.953-3.24 7.193-7.193 7.193-3.953 0-7.194-3.24-7.194-7.193V33.641zm4.796 25.468h4.795V31.631H61.15v27.478z"/>
            <path fill="#6C98C2" d="M76.183 26.836h19.183a4.786 4.786 0 0 1 4.796 4.795v32.273h-4.796V31.631H90.57v32.273h-4.796V31.631h-4.795v32.273h-4.796V26.836z"/>
            <path fill="#6C98C2" d="M106.249 26.836h19.183a4.785 4.785 0 0 1 4.796 4.795v32.273h-4.796V31.631h-4.796v32.273h-4.795V31.631h-4.796v32.273h-4.796V26.836z"/>
            <path fill="#6C98C2" d="M150.054 63.904h-9.591a4.785 4.785 0 0 1-4.796-4.795V45.564a4.785 4.785 0 0 1 4.796-4.795h4.795V31.63h-8.554v-4.795h8.554a4.785 4.785 0 0 1 4.796 4.795v32.274zm-9.591-4.795h4.795V45.564h-4.795v13.545z"/>
            <path fill="#6C98C2" d="M169.558 63.904h-9.591a4.785 4.785 0 0 1-4.796-4.795V45.564a4.785 4.785 0 0 1 4.796-4.795h4.796V31.63h-8.555v-4.795h8.555a4.785 4.785 0 0 1 4.795 4.795v32.274zm-9.591-4.795h4.796V45.564h-4.796v13.545z"/>
            <path fill="#6C98C2" d="M174.999 31.631a4.786 4.786 0 0 1 4.796-4.795h4.796v4.795h-4.796v32.273h-4.796V31.631z"/>
            <path fill="#6C98C2" d="M187.57 12.498h4.796V40.77h2.981c.972 0 1.813-.26 1.813-1.621v-8.424c0-1.945.52-2.982.908-3.889h4.795c-.389.906-.907 1.879-.907 3.889v8.424c0 2.203-1.037 3.5-2.074 4.018 1.037.455 2.074 1.75 2.074 3.955v12.895c0 2.01.519 2.982.907 3.889h-4.795c-.389-.906-.908-1.943-.908-3.889V47.121c0-.713-.388-1.557-1.813-1.557h-2.981v18.34h-4.796V12.498z"/>
            <path fill="#6C98C2" d="M208.186 12.498h4.797V40.77h2.98c.972 0 1.815-.26 1.815-1.621v-8.424c0-1.945.518-2.982.906-3.889h4.796c-.389.906-.907 1.879-.907 3.889v8.424c0 2.203-1.037 3.5-2.074 4.018 1.037.455 2.074 1.75 2.074 3.955v12.895c0 2.01.519 2.982.907 3.889h-4.796c-.389-.906-.906-1.943-.906-3.889V47.121c0-.713-.39-1.557-1.815-1.557h-2.98v18.34h-4.797V12.498z"/>
            <path fill="#6C98C2" d="M242.401 63.904h-9.592a4.786 4.786 0 0 1-4.796-4.795V45.564a4.786 4.786 0 0 1 4.796-4.795h4.797V31.63h-8.556v-4.795h8.556a4.785 4.785 0 0 1 4.795 4.795v32.274zm-9.591-4.795h4.797V45.564h-4.797v13.545z"/>
            <path fill="#6C98C2" d="M262.229 63.904h-9.591a4.786 4.786 0 0 1-4.796-4.795V31.631a4.786 4.786 0 0 1 4.796-4.795h4.796V12.498h4.795v51.406zm-9.591-4.795h4.796V31.631h-4.796v27.478z"/>
            <path fill="#6C98C2" d="M282.058 63.904h-9.591a4.785 4.785 0 0 1-4.797-4.795V45.564a4.785 4.785 0 0 1 4.797-4.795h4.795V31.63h-8.554v-4.795h8.554a4.785 4.785 0 0 1 4.796 4.795v32.274zm-9.591-4.795h4.795V45.564h-4.795v13.545z"/>
            <path fill="#6C98C2" d="M288.146 12.498h4.796v14.338h4.795a4.785 4.785 0 0 1 4.796 4.795v32.273h-4.796V31.631h-4.795v32.273h-4.796V12.498z"/>
            <path fill="#6C98C2" d="M142.86 15.721l7.233 5.658-3.442 2.217-3.791-3.034-3.791 3.034-3.441-2.217z"/>
            <path fill="#6C98C2" d="M235.207 15.721l7.232 5.658-3.44 2.217-3.792-3.034-3.791 3.034-3.44-2.217z"/>
            <path fill="#6C98C2" d="M274.864 15.721l7.232 5.658-3.44 2.217-3.792-3.034-3.791 3.034-3.441-2.217z"/>
        </g>
    </g>
</svg>
