<?xml version="1.0" encoding="utf-8"?>
<svg xmlns="http://www.w3.org/2000/svg" width="235.862" height="69.574">
    <g id="Namnarkivet">
        <g>
            <path fill="#CAB626" d="M0 69.574h50.636V0H0v69.574zm14.778-50.592a6.5 6.5 0 1 1 0-13 6.5 6.5 0 0 1 0 13m29.077 44.926h-5.04c-1.873-10.8-4.608-21.458-6.193-32.906h-.144c.288 4.32.72 13.465.72 18.001v14.905H27.87V12.496h5.04c1.872 10.801 4.609 21.458 6.193 32.907h.144c-.288-4.321-.72-13.465-.72-18.002V12.496h5.328v51.412z"/>
            <path fill="#6C98C2" d="M70.741 63.915H61.15a4.785 4.785 0 0 1-4.796-4.796V45.575a4.785 4.785 0 0 1 4.796-4.795h4.796v-9.138h-8.554v-4.796h8.554a4.785 4.785 0 0 1 4.795 4.796v32.273zm-9.591-4.796h4.795V45.575H61.15v13.544z"/>
            <path fill="#6C98C2" d="M76.506 26.846h19.183a4.785 4.785 0 0 1 4.796 4.796v32.273h-4.796V31.642h-4.796v32.273h-4.795V31.642h-4.796v32.273h-4.796V26.846z"/>
            <path fill="#6C98C2" d="M106.573 26.846h9.591a4.785 4.785 0 0 1 4.796 4.796v32.273h-4.796V31.642h-4.796v32.273h-4.795V26.846z"/>
            <path fill="#6C98C2" d="M140.788 63.915h-9.591a4.785 4.785 0 0 1-4.796-4.796V45.575a4.785 4.785 0 0 1 4.796-4.795h4.796v-9.138h-8.555v-4.796h8.555a4.785 4.785 0 0 1 4.795 4.796v32.273zm-9.591-4.796h4.796V45.575h-4.796v13.544z"/>
            <path fill="#6C98C2" d="M146.229 31.642a4.785 4.785 0 0 1 4.796-4.796h4.796v4.796h-4.796v32.273h-4.796V31.642z"/>
            <path fill="#6C98C2" d="M158.8 12.506h4.796v28.273h2.981c.972 0 1.813-.259 1.813-1.621v-8.424c0-1.944.519-2.981.908-3.889h4.795c-.389.908-.907 1.88-.907 3.889v8.424c0 2.204-1.037 3.5-2.073 4.018 1.036.454 2.073 1.75 2.073 3.954v12.897c0 2.007.519 2.98.907 3.887h-4.795c-.39-.907-.908-1.944-.908-3.887V47.13c0-.713-.388-1.556-1.813-1.556h-2.981v18.34H158.8V12.506z"/>
            <path fill="#6C98C2" d="M184.202 22.439h-4.797v-4.796h4.797v4.796zm0 41.864a5.304 5.304 0 0 1-3.37-1.425c-.907-.844-1.427-2.074-1.427-3.371V26.845h4.797v37.458z"/>
            <path fill="#6C98C2" d="M187.765 26.846h4.796l1.749 14.581c.454 3.954 1.037 7.842 1.232 11.859h.13c.193-4.017.776-7.905 1.23-11.859l1.749-14.581h4.796l-5.638 37.069h-4.407l-5.637-37.069z"/>
            <path fill="#6C98C2" d="M206.442 33.65c0-3.953 3.24-7.194 7.193-7.194s7.194 3.241 7.194 7.194v14.127h-9.592v11.341h4.796v-4.795h4.796v2.786c0 3.953-3.241 7.194-7.194 7.194s-7.193-3.241-7.193-7.194V33.65zm4.796 9.332h4.796v-11.34h-4.796v11.34z"/>
            <path fill="#6C98C2" d="M235.862 31.642h-4.796v32.662a5.316 5.316 0 0 1-3.37-1.425c-.907-.844-1.426-2.074-1.426-3.371V17.643h4.796v9.203h4.796v4.796z"/>
        </g>
    </g>
</svg>
