<?xml version="1.0" encoding="utf-8"?>
<svg xmlns="http://www.w3.org/2000/svg" width="215.563" height="69.574">
    <g id="Nimiarkisto">
        <g>
            <path fill="#CAB626" d="M0 69.574h50.636V0H0v69.574zm14.778-50.592a6.5 6.5 0 1 1 0-13 6.5 6.5 0 0 1 0 13m29.077 44.927h-5.04c-1.873-10.801-4.608-21.458-6.193-32.907h-.144c.288 4.321.72 13.465.72 18.002v14.905H27.87V12.496h5.04c1.872 10.802 4.609 21.458 6.193 32.908h.144c-.288-4.321-.72-13.466-.72-18.002V12.496h5.328v51.413z"/>
            <path fill="#6C98C2" d="M61.537 22.43h-4.795v-4.796h4.795v4.796zm0 41.864a5.306 5.306 0 0 1-3.37-1.426c-.907-.843-1.425-2.074-1.425-3.37V26.836h4.795v37.458z"/>
            <path fill="#6C98C2" d="M67.627 26.836H86.81a4.785 4.785 0 0 1 4.796 4.796v32.273H86.81V31.632h-4.795v32.273h-4.796V31.632h-4.796v32.273h-4.795V26.836z"/>
            <path fill="#6C98C2" d="M102.489 22.43h-4.795v-4.796h4.795v4.796zm0 41.864a5.306 5.306 0 0 1-3.37-1.426c-.907-.843-1.425-2.074-1.425-3.37V26.836h4.795v37.458z"/>
            <path fill="#6C98C2" d="M122.318 63.906h-9.59a4.785 4.785 0 0 1-4.796-4.796V45.564a4.785 4.785 0 0 1 4.796-4.795h4.795v-9.137h-8.554v-4.796h8.554a4.784 4.784 0 0 1 4.795 4.796v32.274zm-9.59-4.797h4.795V45.565h-4.795v13.544z"/>
            <path fill="#6C98C2" d="M127.76 31.632a4.785 4.785 0 0 1 4.796-4.796h4.795v4.796h-4.795v32.273h-4.796V31.632z"/>
            <path fill="#6C98C2" d="M140.331 12.497h4.796V40.77h2.981c.974 0 1.815-.259 1.815-1.62v-8.425c0-1.944.518-2.981.907-3.888h4.795c-.389.907-.907 1.879-.907 3.888v8.425c0 2.203-1.036 3.499-2.074 4.018 1.038.453 2.074 1.749 2.074 3.953v12.896c0 2.009.519 2.981.907 3.889h-4.795c-.39-.908-.907-1.945-.907-3.889V47.121c0-.713-.39-1.556-1.815-1.556h-2.981v18.341h-4.796V12.497z"/>
            <path fill="#6C98C2" d="M165.731 22.43h-4.795v-4.796h4.795v4.796zm0 41.864a5.301 5.301 0 0 1-3.369-1.426c-.907-.843-1.426-2.074-1.426-3.37V26.836h4.795v37.458z"/>
            <path fill="#6C98C2" d="M180.506 31.632h-4.795v11.341h4.795a4.785 4.785 0 0 1 4.797 4.795V57.1c0 3.953-3.24 7.194-7.193 7.194-3.954 0-7.194-3.241-7.194-7.194v-2.786h4.796v4.795h4.795v-11.34h-4.795a4.785 4.785 0 0 1-4.796-4.795V33.64c0-3.953 3.24-7.193 7.194-7.193 3.953 0 7.193 3.24 7.193 7.193v2.787h-4.797v-4.795z"/>
            <path fill="#6C98C2" d="M199.428 31.632h-4.795v32.662a5.299 5.299 0 0 1-3.369-1.426c-.908-.843-1.427-2.074-1.427-3.37V17.633h4.796v9.203h4.795v4.796z"/>
            <path fill="#6C98C2" d="M201.177 33.641c0-3.953 3.24-7.193 7.193-7.193s7.193 3.24 7.193 7.193v23.46c0 3.953-3.24 7.193-7.193 7.193s-7.193-3.24-7.193-7.193v-23.46zm4.795 25.468h4.796V31.632h-4.796v27.477z"/>
        </g>
    </g>
</svg>
