<?xml version="1.0" encoding="utf-8"?>
<svg xmlns="http://www.w3.org/2000/svg" width="223.315" height="69.574">
    <g id="Nõmmarkiiv">
        <g>
            <path fill="#CAB626" d="M0 69.574h50.636V0H0v69.574zm21.278-56.519a6.5 6.5 0 1 1-13 0c0-.098.011-.191.015-.287-.004-.096-.015-.189-.015-.285a6.5 6.5 0 1 1 13 0c0 .096-.01.189-.015.285.005.095.015.189.015.287m22.577 50.853h-5.04C36.942 53.107 34.207 42.449 32.622 31h-.144c.288 4.32.72 13.467.72 18.002v14.906H27.87V12.496h5.04c1.872 10.801 4.609 21.457 6.193 32.906h.144c-.288-4.32-.72-13.465-.72-18.002V12.496h5.328v51.412z"/>
            <path fill="#6C98C2" d="M56.354 33.65c0-3.955 3.241-7.193 7.194-7.193s7.193 3.238 7.193 7.193v23.459c0 3.953-3.24 7.193-7.193 7.193-3.953 0-7.194-3.24-7.194-7.193V33.65zm4.796 25.469h4.795V31.641H61.15v27.478z"/>
            <path fill="#6C98C2" d="M76.183 26.846h19.183a4.785 4.785 0 0 1 4.796 4.795v32.273h-4.796V31.641H90.57v32.273h-4.796V31.641h-4.795v32.273h-4.796V26.846z"/>
            <path fill="#6C98C2" d="M106.249 26.846h19.183a4.784 4.784 0 0 1 4.796 4.795v32.273h-4.796V31.641h-4.796v32.273h-4.795V31.641h-4.796v32.273h-4.796V26.846z"/>
            <path fill="#6C98C2" d="M150.054 63.914h-9.591a4.785 4.785 0 0 1-4.796-4.795V45.574a4.786 4.786 0 0 1 4.796-4.797h4.795V31.64h-8.554v-4.795h8.554a4.783 4.783 0 0 1 4.796 4.795v32.274zm-9.591-4.795h4.795V45.574h-4.795v13.545z"/>
            <path fill="#6C98C2" d="M155.495 31.641a4.784 4.784 0 0 1 4.796-4.795h4.795v4.795h-4.795v32.273h-4.796V31.641z"/>
            <path fill="#6C98C2" d="M168.065 12.506h4.797v28.271h2.98c.972 0 1.815-.257 1.815-1.618v-8.426c0-1.943.518-2.98.906-3.887h4.796c-.389.906-.907 1.879-.907 3.887v8.426c0 2.203-1.037 3.5-2.074 4.018 1.037.453 2.074 1.75 2.074 3.953v12.896c0 2.01.519 2.98.907 3.889h-4.796c-.389-.908-.906-1.945-.906-3.889V47.129c0-.713-.39-1.555-1.815-1.555h-2.98v18.34h-4.797V12.506z"/>
            <path fill="#6C98C2" d="M193.468 22.438h-4.797v-4.795h4.797v4.795zm0 41.865c-1.297-.064-2.463-.584-3.37-1.426s-1.427-2.074-1.427-3.369V26.846h4.797v37.457z"/>
            <path fill="#6C98C2" d="M204.069 22.438h-4.796v-4.795h4.796v4.795zm0 41.865a5.299 5.299 0 0 1-3.369-1.426c-.907-.842-1.427-2.074-1.427-3.369V26.846h4.796v37.457z"/>
            <path fill="#6C98C2" d="M207.633 26.846h4.796l1.75 14.58c.453 3.953 1.037 7.842 1.231 11.859h.13c.193-4.018.776-7.906 1.23-11.859l1.75-14.58h4.795l-5.638 37.068h-4.407l-5.637-37.068z"/>
            <path fill="#6C98C2" d="M56.607 22.447c0-3.43 2.216-4.936 4.783-4.936 1.458 0 3.561 1.051 4.378 1.051.524 0 .933-.572.933-1.32h3.788c0 3.682-2.217 4.938-4.783 4.938-1.458 0-3.561-1.051-4.378-1.051-.525 0-.933.545-.933 1.318h-3.788z"/>
        </g>
    </g>
</svg>
