<?xml version="1.0" encoding="utf-8"?>
<svg xmlns="http://www.w3.org/2000/svg" width="260.527" height="69.574">
    <g id="Nammarkiiva">
        <g>
            <path fill="#6C98C2" d="M70.741 63.904H61.15a4.785 4.785 0 0 1-4.796-4.795V45.564a4.784 4.784 0 0 1 4.796-4.795h4.796v-9.138h-8.554v-4.795h8.554a4.784 4.784 0 0 1 4.795 4.795v32.273zm-9.591-4.795h4.795V45.564H61.15v13.545z"/>
            <path fill="#6C98C2" d="M76.506 26.836h19.183a4.785 4.785 0 0 1 4.796 4.795v32.273h-4.796V31.631h-4.796v32.273h-4.795V31.631h-4.796v32.273h-4.796V26.836z"/>
            <path fill="#6C98C2" d="M106.573 26.836h19.182a4.785 4.785 0 0 1 4.796 4.795v32.273h-4.796V31.631h-4.795v32.273h-4.796V31.631h-4.796v32.273h-4.795V26.836z"/>
            <path fill="#6C98C2" d="M150.377 63.904h-9.59a4.785 4.785 0 0 1-4.796-4.795V45.564a4.784 4.784 0 0 1 4.796-4.795h4.796v-9.138h-8.555v-4.795h8.555a4.784 4.784 0 0 1 4.794 4.795v32.273zm-9.59-4.795h4.796V45.564h-4.796v13.545z"/>
            <path fill="#6C98C2" d="M169.882 63.904h-9.591a4.785 4.785 0 0 1-4.796-4.795V45.564a4.784 4.784 0 0 1 4.796-4.795h4.795v-9.138h-8.554v-4.795h8.554a4.784 4.784 0 0 1 4.796 4.795v32.273zm-9.591-4.795h4.795V45.564h-4.795v13.545z"/>
            <path fill="#6C98C2" d="M175.323 31.631a4.785 4.785 0 0 1 4.796-4.795h4.795v4.795h-4.795v32.273h-4.796V31.631z"/>
            <path fill="#6C98C2" d="M187.894 12.498h4.797v28.271h2.98c.972 0 1.815-.259 1.815-1.62v-8.423c0-1.946.518-2.983.906-3.889h4.795c-.388.906-.906 1.879-.906 3.889v8.423c0 2.203-1.037 3.5-2.074 4.018 1.037.453 2.074 1.75 2.074 3.953v12.896c0 2.01.519 2.982.906 3.889h-4.795c-.389-.906-.906-1.943-.906-3.889V47.119c0-.713-.39-1.555-1.815-1.555h-2.98v18.34h-4.797V12.498z"/>
            <path fill="#6C98C2" d="M213.295 22.428h-4.796v-4.795h4.796v4.795zm0 41.865c-1.296-.064-2.462-.584-3.369-1.426s-1.427-2.074-1.427-3.369V26.836h4.796v37.457z"/>
            <path fill="#6C98C2" d="M223.897 22.428h-4.796v-4.795h4.796v4.795zm0 41.865a5.299 5.299 0 0 1-3.369-1.426c-.907-.842-1.427-2.074-1.427-3.369V26.836h4.796v37.457z"/>
            <path fill="#6C98C2" d="M227.461 26.836h4.796l1.75 14.58c.453 3.953 1.037 7.842 1.231 11.861h.13c.193-4.02.776-7.908 1.23-11.861l1.75-14.58h4.795l-5.638 37.068h-4.407l-5.637-37.068z"/>
            <path fill="#6C98C2" d="M260.527 63.904h-9.593a4.785 4.785 0 0 1-4.795-4.795V45.564a4.784 4.784 0 0 1 4.795-4.795h4.796v-9.138h-8.554v-4.795h8.554a4.785 4.785 0 0 1 4.797 4.795v32.273zm-9.592-4.795h4.796V45.564h-4.796v13.545z"/>
            <path fill="#CAB626" d="M0 69.574h50.636V0H0v69.574zm14.778-50.592a6.5 6.5 0 1 1 0-13 6.5 6.5 0 0 1 0 13m29.077 44.926h-5.04c-1.873-10.8-4.608-21.458-6.193-32.906h-.144c.288 4.32.72 13.465.72 18.001v14.905H27.87V12.496h5.04c1.872 10.801 4.609 21.458 6.193 32.907h.144c-.288-4.321-.72-13.465-.72-18.002V12.496h5.328v51.412z"/>
        </g>
    </g>
</svg>
